<?xml version="1.0" standalone="no"?>
<!DOCTYPE svg PUBLIC "-//W3C//DTD SVG 20010904//EN"
 "http://www.w3.org/TR/2001/REC-SVG-20010904/DTD/svg10.dtd">
<svg version="1.0" xmlns="http://www.w3.org/2000/svg"
 width="580.000000pt" height="382.000000pt" viewBox="0 0 580.000000 382.000000"
 preserveAspectRatio="xMidYMid meet">

<g transform="translate(0.000000,382.000000) scale(0.100000,-0.100000)"
fill="#000000" stroke="none">
<path d="M2175 3156 c-16 -7 -39 -23 -50 -36 -20 -22 -20 -36 -20 -591 l0
-569 33 -32 32 -33 720 0 720 0 32 33 33 32 0 569 c0 555 0 569 -20 591 -45
51 -37 50 -767 50 -544 -1 -689 -3 -713 -14z m1413 -88 c8 -8 12 -46 12 -105
l0 -93 -710 0 -710 0 0 93 c0 59 4 97 12 105 17 17 1379 17 1396 0z m12 -672
c0 -345 -2 -397 -16 -410 -14 -14 -90 -16 -694 -16 -604 0 -680 2 -694 16 -14
13 -16 64 -16 403 0 213 3 391 7 394 3 4 323 7 710 7 l703 0 0 -394z"/>
<path d="M2260 3010 c-24 -24 -24 -29 -4 -58 17 -24 53 -29 72 -10 19 19 14
55 -10 72 -29 20 -34 20 -58 -4z"/>
<path d="M2430 3010 c-24 -24 -24 -29 -4 -58 17 -24 53 -29 72 -10 19 19 14
55 -10 72 -29 20 -34 20 -58 -4z"/>
<path d="M2600 3010 c-24 -24 -24 -29 -4 -58 17 -24 53 -29 72 -10 19 19 14
55 -10 72 -29 20 -34 20 -58 -4z"/>
<path d="M2968 2658 c-25 -21 -221 -523 -213 -547 4 -15 15 -21 36 -21 16 0
29 1 29 3 0 2 47 119 105 261 58 142 105 267 105 277 0 10 -9 23 -19 29 -24
13 -24 13 -43 -2z"/>
<path d="M2635 2607 c-11 -6 -73 -55 -137 -110 -86 -72 -118 -105 -118 -121 0
-17 34 -52 126 -130 101 -86 132 -106 153 -104 20 2 27 9 29 29 3 22 -13 39
-103 114 -58 48 -105 89 -105 90 0 1 47 42 105 90 78 65 105 94 105 111 0 30
-29 46 -55 31z"/>
<path d="M3107 2608 c-39 -21 -20 -52 88 -143 58 -48 105 -89 105 -90 0 -1
-47 -42 -105 -90 -90 -75 -106 -92 -103 -114 2 -20 10 -27 29 -29 35 -4 279
200 279 233 0 16 -34 52 -122 126 -133 113 -146 122 -171 107z"/>
<path d="M3784 1634 c-35 -53 21 -113 80 -86 58 26 36 112 -29 112 -26 0 -39
-6 -51 -26z"/>
<path d="M1082 1636 c-101 -33 -147 -99 -140 -200 6 -101 51 -139 223 -191
156 -47 195 -76 195 -146 0 -129 -217 -164 -313 -50 -15 18 -27 39 -27 47 0
17 -21 18 -72 3 l-38 -10 16 -37 c23 -56 81 -109 144 -133 45 -17 72 -20 151
-17 86 3 102 7 145 34 66 40 94 91 94 169 0 118 -62 170 -260 220 -120 31
-160 63 -160 128 1 46 11 64 54 92 37 24 138 25 183 2 34 -18 73 -62 73 -83 0
-17 0 -17 56 -3 42 11 45 14 39 37 -11 43 -55 91 -110 118 -67 32 -187 42
-253 20z"/>
<path d="M4107 1523 c-7 -78 -27 -103 -83 -103 -33 0 -34 -1 -34 -40 l0 -40
55 0 55 0 0 -170 c0 -189 7 -218 60 -245 16 -8 55 -15 90 -15 l60 0 0 35 c0
33 -2 35 -34 35 -19 0 -44 9 -57 19 -23 19 -24 25 -27 180 l-3 161 60 0 61 0
0 40 0 40 -60 0 -60 0 0 85 0 85 -39 0 -38 0 -6 -67z"/>
<path d="M1739 1415 c-50 -16 -109 -68 -136 -118 -10 -19 -18 -65 -21 -115 -7
-132 34 -213 133 -258 109 -51 252 -20 316 69 16 22 29 43 29 47 0 4 -19 10
-42 14 -38 6 -44 4 -65 -23 -29 -37 -101 -66 -145 -57 -74 14 -137 84 -138
154 l0 22 200 0 200 0 0 43 c0 90 -49 175 -123 213 -42 22 -153 27 -208 9z
m172 -76 c24 -12 47 -47 59 -88 l9 -31 -150 0 c-163 0 -165 1 -135 58 20 38
50 63 88 73 37 9 101 3 129 -12z"/>
<path d="M2720 1421 c-110 -36 -169 -114 -178 -233 -5 -76 15 -153 54 -204 36
-48 116 -84 187 -84 88 0 135 18 190 72 58 58 60 74 7 83 -36 6 -42 4 -69 -28
-90 -101 -257 -47 -272 88 l-4 30 204 3 203 2 -6 48 c-16 109 -50 168 -119
204 -45 23 -154 34 -197 19z m157 -87 c28 -18 49 -50 58 -86 l7 -28 -151 0
c-98 0 -151 4 -151 10 0 23 41 90 62 101 58 31 131 33 175 3z"/>
<path d="M3342 1409 c-24 -12 -46 -28 -49 -35 -9 -25 -23 -15 -23 16 0 29 -2
30 -45 30 l-45 0 0 -255 0 -255 44 0 44 0 4 173 c4 202 13 231 86 257 37 13
47 13 84 0 66 -23 72 -44 76 -252 l4 -178 44 0 44 0 0 195 c0 209 -6 241 -51
281 -54 47 -147 57 -217 23z"/>
<path d="M2220 1165 l0 -255 45 0 45 0 0 148 c0 81 5 164 10 184 13 45 49 75
107 89 41 11 43 13 43 50 0 36 -2 39 -27 39 -32 0 -90 -32 -115 -63 -17 -22
-18 -21 -18 21 l0 42 -45 0 -45 0 0 -255z"/>
<path d="M3790 1165 l0 -255 45 0 45 0 0 255 0 255 -45 0 -45 0 0 -255z"/>
<path d="M4373 1408 c3 -7 49 -120 102 -252 l97 -239 -51 -121 c-28 -67 -51
-125 -51 -129 0 -4 21 -7 48 -7 l47 0 145 367 c80 201 146 372 148 380 3 9 -9
13 -45 13 l-48 0 -70 -191 c-38 -105 -72 -192 -75 -194 -3 -2 -36 84 -75 191
l-70 194 -54 0 c-38 0 -52 -3 -48 -12z"/>
</g>
</svg>
